<?xml version="1.0" standalone="no"?>
<!DOCTYPE svg PUBLIC "-//W3C//DTD SVG 20010904//EN"
 "http://www.w3.org/TR/2001/REC-SVG-20010904/DTD/svg10.dtd">
<svg version="1.0" xmlns="http://www.w3.org/2000/svg"
 width="500.000000pt" height="126.000000pt" viewBox="0 0 500.000000 126.000000"
 preserveAspectRatio="xMidYMid meet">

<g transform="translate(0.000000,126.000000) scale(0.100000,-0.100000)"
fill="#000000" stroke="none">
<path d="M770 675 l0 -535 225 0 225 0 0 220 0 220 330 0 330 0 0 100 0 100
-330 0 -330 0 0 85 0 85 390 0 390 0 0 130 0 130 -615 0 -615 0 0 -535z"/>
<path d="M2355 1126 c-79 -16 -131 -34 -196 -66 -205 -104 -281 -375 -137
-483 92 -69 206 -98 450 -117 196 -15 268 -26 287 -45 13 -13 12 -18 -14 -45
-38 -40 -120 -64 -183 -55 -54 8 -120 39 -129 60 -8 21 -483 22 -483 1 0 -7
16 -45 35 -84 96 -192 296 -270 660 -259 309 10 475 89 558 265 61 132 44 238
-52 308 -88 64 -213 94 -505 119 -104 9 -198 21 -208 26 -26 14 -22 34 12 63
78 65 231 59 294 -13 19 -20 26 -21 257 -21 l238 0 -9 30 c-43 150 -169 260
-351 306 -89 22 -427 29 -524 10z"/>
<path d="M1379 327 c-21 -16 -39 -51 -39 -77 0 -33 53 -80 90 -80 73 0 111
104 54 149 -29 23 -80 27 -105 8z m93 -24 c10 -9 18 -30 18 -46 0 -62 -61 -88
-107 -45 -27 25 -29 54 -7 86 18 27 69 30 96 5z"/>
<path d="M1620 255 c0 -50 4 -85 10 -85 6 0 10 16 10 35 0 46 23 46 52 0 22
-33 38 -45 38 -27 0 4 -7 18 -17 31 -13 19 -14 28 -5 42 31 49 5 89 -57 89
l-31 0 0 -85z m79 41 c2 -11 -5 -26 -15 -33 -31 -22 -44 -16 -44 23 0 33 2 35
27 32 18 -2 29 -10 32 -22z"/>
<path d="M3320 255 c0 -85 16 -119 22 -47 3 37 3 37 51 40 l47 3 0 -40 c0 -23
5 -41 10 -41 6 0 10 35 10 85 0 50 -4 85 -10 85 -5 0 -10 -16 -10 -35 l0 -35
-50 0 -50 0 0 35 c0 19 -4 35 -10 35 -6 0 -10 -35 -10 -85z"/>
<path d="M3590 315 c-34 -37 -33 -90 4 -121 82 -71 191 42 116 121 -17 18 -34
25 -60 25 -26 0 -43 -7 -60 -25z m104 -10 c43 -44 17 -110 -44 -110 -61 0 -87
66 -44 110 20 19 68 19 88 0z"/>
<path d="M3840 255 c0 -82 15 -119 22 -52 2 26 8 33 28 35 35 5 50 20 50 51 0
37 -17 51 -62 51 l-38 0 0 -85z m80 46 c7 -15 6 -24 -6 -36 -25 -25 -49 -15
-52 23 -3 28 0 32 22 32 15 0 30 -8 36 -19z"/>
</g>
</svg>
